<svg width="291" height="100" viewBox="0 0 291 100" fill="none" xmlns="http://www.w3.org/2000/svg">
<rect width="291" height="100" rx="8" fill="#EEEEEE"/>
<path d="M72 58V68.6667C72 70.0812 71.4381 71.4377 70.4379 72.4379C69.4377 73.4381 68.0812 74 66.6667 74H29.3333C27.9188 74 26.5623 73.4381 25.5621 72.4379C24.5619 71.4377 24 70.0812 24 68.6667V58" stroke="#111111" stroke-width="4" stroke-linecap="round" stroke-linejoin="round"/>
<path d="M34.6665 44.6666L47.9998 58L61.3332 44.6666" stroke="#111111" stroke-width="4" stroke-linecap="round" stroke-linejoin="round"/>
<path d="M48 58V26" stroke="#111111" stroke-width="4" stroke-linecap="round" stroke-linejoin="round"/>
<path d="M254.21 26.98L251.72 34H249.58L247.09 26.98H248.91L250.65 32.28L252.4 26.98H254.21ZM254.629 27.148V25.24H257.953V34H255.817V27.148H254.629ZM260.52 34.096C260.16 34.096 259.864 33.992 259.632 33.784C259.408 33.568 259.296 33.304 259.296 32.992C259.296 32.672 259.408 32.404 259.632 32.188C259.864 31.972 260.16 31.864 260.52 31.864C260.872 31.864 261.16 31.972 261.384 32.188C261.616 32.404 261.732 32.672 261.732 32.992C261.732 33.304 261.616 33.568 261.384 33.784C261.16 33.992 260.872 34.096 260.52 34.096ZM262.743 29.5C262.743 28.124 263.007 27.04 263.535 26.248C264.071 25.456 264.931 25.06 266.115 25.06C267.299 25.06 268.155 25.456 268.683 26.248C269.219 27.04 269.487 28.124 269.487 29.5C269.487 30.892 269.219 31.984 268.683 32.776C268.155 33.568 267.299 33.964 266.115 33.964C264.931 33.964 264.071 33.568 263.535 32.776C263.007 31.984 262.743 30.892 262.743 29.5ZM267.471 29.5C267.471 28.692 267.383 28.072 267.207 27.64C267.031 27.2 266.667 26.98 266.115 26.98C265.563 26.98 265.199 27.2 265.023 27.64C264.847 28.072 264.759 28.692 264.759 29.5C264.759 30.044 264.791 30.496 264.855 30.856C264.919 31.208 265.047 31.496 265.239 31.72C265.439 31.936 265.731 32.044 266.115 32.044C266.499 32.044 266.787 31.936 266.979 31.72C267.179 31.496 267.311 31.208 267.375 30.856C267.439 30.496 267.471 30.044 267.471 29.5Z" fill="#808080"/>
<path d="M111.8 21.152C113.576 21.152 115.128 21.504 116.456 22.208C117.784 22.912 118.808 23.904 119.528 25.184C120.264 26.448 120.632 27.912 120.632 29.576C120.632 31.224 120.264 32.688 119.528 33.968C118.808 35.248 117.776 36.24 116.432 36.944C115.104 37.648 113.56 38 111.8 38H105.488V21.152H111.8ZM111.536 34.448C113.088 34.448 114.296 34.024 115.16 33.176C116.024 32.328 116.456 31.128 116.456 29.576C116.456 28.024 116.024 26.816 115.16 25.952C114.296 25.088 113.088 24.656 111.536 24.656H109.592V34.448H111.536ZM129.022 38.192C127.71 38.192 126.526 37.912 125.47 37.352C124.43 36.792 123.606 35.992 122.998 34.952C122.406 33.912 122.11 32.696 122.11 31.304C122.11 29.928 122.414 28.72 123.021 27.68C123.63 26.624 124.462 25.816 125.518 25.256C126.574 24.696 127.758 24.416 129.07 24.416C130.382 24.416 131.566 24.696 132.622 25.256C133.678 25.816 134.51 26.624 135.118 27.68C135.726 28.72 136.03 29.928 136.03 31.304C136.03 32.68 135.718 33.896 135.094 34.952C134.486 35.992 133.646 36.792 132.574 37.352C131.518 37.912 130.334 38.192 129.022 38.192ZM129.022 34.64C129.806 34.64 130.47 34.352 131.014 33.776C131.574 33.2 131.854 32.376 131.854 31.304C131.854 30.232 131.582 29.408 131.038 28.832C130.51 28.256 129.854 27.968 129.07 27.968C128.27 27.968 127.606 28.256 127.078 28.832C126.55 29.392 126.286 30.216 126.286 31.304C126.286 32.376 126.542 33.2 127.054 33.776C127.582 34.352 128.238 34.64 129.022 34.64ZM157.431 24.608L153.807 38H149.271L147.159 29.312L144.975 38H140.463L136.815 24.608H140.919L142.815 34.184L145.071 24.608H149.415L151.695 34.136L153.567 24.608H157.431ZM167.156 24.464C168.724 24.464 169.972 24.976 170.9 26C171.844 27.008 172.316 28.4 172.316 30.176V38H168.236V30.728C168.236 29.832 168.004 29.136 167.54 28.64C167.076 28.144 166.452 27.896 165.668 27.896C164.884 27.896 164.26 28.144 163.796 28.64C163.332 29.136 163.1 29.832 163.1 30.728V38H158.996V24.608H163.1V26.384C163.516 25.792 164.076 25.328 164.78 24.992C165.484 24.64 166.276 24.464 167.156 24.464ZM179.272 20.24V38H175.168V20.24H179.272ZM188.342 38.192C187.03 38.192 185.846 37.912 184.79 37.352C183.75 36.792 182.926 35.992 182.318 34.952C181.726 33.912 181.43 32.696 181.43 31.304C181.43 29.928 181.734 28.72 182.342 27.68C182.95 26.624 183.782 25.816 184.838 25.256C185.894 24.696 187.078 24.416 188.39 24.416C189.702 24.416 190.886 24.696 191.942 25.256C192.998 25.816 193.83 26.624 194.438 27.68C195.046 28.72 195.35 29.928 195.35 31.304C195.35 32.68 195.038 33.896 194.414 34.952C193.806 35.992 192.966 36.792 191.894 37.352C190.838 37.912 189.654 38.192 188.342 38.192ZM188.342 34.64C189.126 34.64 189.79 34.352 190.334 33.776C190.894 33.2 191.174 32.376 191.174 31.304C191.174 30.232 190.902 29.408 190.358 28.832C189.83 28.256 189.174 27.968 188.39 27.968C187.59 27.968 186.926 28.256 186.398 28.832C185.87 29.392 185.606 30.216 185.606 31.304C185.606 32.376 185.862 33.2 186.374 33.776C186.902 34.352 187.558 34.64 188.342 34.64ZM196.711 31.28C196.711 29.904 196.967 28.696 197.479 27.656C198.007 26.616 198.719 25.816 199.615 25.256C200.511 24.696 201.511 24.416 202.615 24.416C203.559 24.416 204.383 24.608 205.087 24.992C205.807 25.376 206.359 25.88 206.743 26.504V24.608H210.847V38H206.743V36.104C206.343 36.728 205.783 37.232 205.063 37.616C204.359 38 203.535 38.192 202.591 38.192C201.503 38.192 200.511 37.912 199.615 37.352C198.719 36.776 198.007 35.968 197.479 34.928C196.967 33.872 196.711 32.656 196.711 31.28ZM206.743 31.304C206.743 30.28 206.455 29.472 205.879 28.88C205.319 28.288 204.631 27.992 203.815 27.992C202.999 27.992 202.303 28.288 201.727 28.88C201.167 29.456 200.887 30.256 200.887 31.28C200.887 32.304 201.167 33.12 201.727 33.728C202.303 34.32 202.999 34.616 203.815 34.616C204.631 34.616 205.319 34.32 205.879 33.728C206.455 33.136 206.743 32.328 206.743 31.304ZM213 31.28C213 29.904 213.256 28.696 213.768 27.656C214.296 26.616 215.008 25.816 215.904 25.256C216.8 24.696 217.8 24.416 218.904 24.416C219.784 24.416 220.584 24.6 221.304 24.968C222.04 25.336 222.616 25.832 223.032 26.456V20.24H227.136V38H223.032V36.08C222.648 36.72 222.096 37.232 221.376 37.616C220.672 38 219.848 38.192 218.904 38.192C217.8 38.192 216.8 37.912 215.904 37.352C215.008 36.776 214.296 35.968 213.768 34.928C213.256 33.872 213 32.656 213 31.28ZM223.032 31.304C223.032 30.28 222.744 29.472 222.168 28.88C221.608 28.288 220.92 27.992 220.104 27.992C219.288 27.992 218.592 28.288 218.016 28.88C217.456 29.456 217.176 30.256 217.176 31.28C217.176 32.304 217.456 33.12 218.016 33.728C218.592 34.32 219.288 34.616 220.104 34.616C220.92 34.616 221.608 34.32 222.168 33.728C222.744 33.136 223.032 32.328 223.032 31.304Z" fill="#111111"/>
<path d="M104.528 60.368C104.528 59.2587 104.768 58.272 105.248 57.408C105.728 56.5333 106.395 55.856 107.248 55.376C108.112 54.8853 109.088 54.64 110.176 54.64C111.509 54.64 112.651 54.992 113.6 55.696C114.549 56.4 115.184 57.36 115.504 58.576H112.496C112.272 58.1067 111.952 57.7493 111.536 57.504C111.131 57.2587 110.667 57.136 110.144 57.136C109.301 57.136 108.619 57.4293 108.096 58.016C107.573 58.6027 107.312 59.3867 107.312 60.368C107.312 61.3493 107.573 62.1333 108.096 62.72C108.619 63.3067 109.301 63.6 110.144 63.6C110.667 63.6 111.131 63.4773 111.536 63.232C111.952 62.9867 112.272 62.6293 112.496 62.16H115.504C115.184 63.376 114.549 64.336 113.6 65.04C112.651 65.7333 111.509 66.08 110.176 66.08C109.088 66.08 108.112 65.84 107.248 65.36C106.395 64.8693 105.728 64.192 105.248 63.328C104.768 62.464 104.528 61.4773 104.528 60.368ZM122.492 66.112C121.436 66.112 120.465 65.8667 119.58 65.376C118.705 64.8853 118.006 64.2027 117.484 63.328C116.971 62.4427 116.715 61.4507 116.715 60.352C116.715 59.2533 116.971 58.2667 117.484 57.392C118.006 56.5173 118.705 55.8347 119.58 55.344C120.465 54.8533 121.436 54.608 122.492 54.608C123.548 54.608 124.513 54.8533 125.388 55.344C126.273 55.8347 126.966 56.5173 127.468 57.392C127.98 58.2667 128.236 59.2533 128.236 60.352C128.236 61.4507 127.98 62.4427 127.468 63.328C126.956 64.2027 126.262 64.8853 125.388 65.376C124.513 65.8667 123.548 66.112 122.492 66.112ZM122.492 63.616C123.388 63.616 124.102 63.3173 124.635 62.72C125.18 62.1227 125.452 61.3333 125.452 60.352C125.452 59.36 125.18 58.5707 124.635 57.984C124.102 57.3867 123.388 57.088 122.492 57.088C121.585 57.088 120.86 57.3813 120.316 57.968C119.782 58.5547 119.516 59.3493 119.516 60.352C119.516 61.344 119.782 62.1387 120.316 62.736C120.86 63.3227 121.585 63.616 122.492 63.616ZM140.302 54.768L136.318 66H132.894L128.91 54.768H131.822L134.606 63.248L137.406 54.768H140.302ZM144.181 54.768V66H141.445V54.768H144.181ZM150.372 54.768C151.556 54.768 152.591 55.0027 153.476 55.472C154.361 55.9413 155.044 56.6027 155.524 57.456C156.015 58.2987 156.26 59.2747 156.26 60.384C156.26 61.4827 156.015 62.4587 155.524 63.312C155.044 64.1653 154.356 64.8267 153.46 65.296C152.575 65.7653 151.545 66 150.372 66H146.164V54.768H150.372ZM150.196 63.632C151.231 63.632 152.036 63.3493 152.612 62.784C153.188 62.2187 153.476 61.4187 153.476 60.384C153.476 59.3493 153.188 58.544 152.612 57.968C152.036 57.392 151.231 57.104 150.196 57.104H148.9V63.632H150.196ZM164.669 59.248V61.52H157.629V59.248H164.669ZM166.51 56.864V54.32H170.942V66H168.094V56.864H166.51ZM175.758 62.576C175.918 63.4187 176.408 63.84 177.23 63.84C177.795 63.84 178.195 63.5893 178.43 63.088C178.664 62.5867 178.782 61.7707 178.782 60.64C178.547 60.9707 178.227 61.2267 177.822 61.408C177.416 61.5893 176.963 61.68 176.462 61.68C175.779 61.68 175.171 61.5413 174.638 61.264C174.104 60.976 173.683 60.5547 173.374 60C173.075 59.4347 172.926 58.752 172.926 57.952C172.926 57.1627 173.086 56.4747 173.406 55.888C173.736 55.3013 174.2 54.848 174.798 54.528C175.406 54.208 176.12 54.048 176.942 54.048C178.52 54.048 179.624 54.5387 180.254 55.52C180.883 56.5013 181.198 57.9467 181.198 59.856C181.198 61.2427 181.07 62.3893 180.814 63.296C180.568 64.192 180.147 64.8747 179.55 65.344C178.963 65.8133 178.158 66.048 177.134 66.048C176.323 66.048 175.63 65.888 175.054 65.568C174.488 65.248 174.051 64.8267 173.742 64.304C173.443 63.7813 173.272 63.2053 173.23 62.576H175.758ZM177.086 59.52C177.534 59.52 177.891 59.3867 178.158 59.12C178.424 58.8427 178.558 58.4693 178.558 58C178.558 57.488 178.419 57.0933 178.142 56.816C177.864 56.5387 177.491 56.4 177.022 56.4C176.552 56.4 176.179 56.544 175.902 56.832C175.635 57.1093 175.502 57.4933 175.502 57.984C175.502 58.4427 175.635 58.816 175.902 59.104C176.179 59.3813 176.574 59.52 177.086 59.52Z" fill="#111111"/>
<path d="M110.818 77.96C111.387 78.0813 111.845 78.366 112.19 78.814C112.535 79.2527 112.708 79.7567 112.708 80.326C112.708 81.1473 112.419 81.8007 111.84 82.286C111.271 82.762 110.473 83 109.446 83H104.868V73.172H109.292C110.291 73.172 111.07 73.4007 111.63 73.858C112.199 74.3153 112.484 74.936 112.484 75.72C112.484 76.2987 112.33 76.7793 112.022 77.162C111.723 77.5447 111.322 77.8107 110.818 77.96ZM107.262 77.148H108.83C109.222 77.148 109.521 77.064 109.726 76.896C109.941 76.7187 110.048 76.462 110.048 76.126C110.048 75.79 109.941 75.5333 109.726 75.356C109.521 75.1787 109.222 75.09 108.83 75.09H107.262V77.148ZM109.026 81.068C109.427 81.068 109.735 80.9793 109.95 80.802C110.174 80.6153 110.286 80.3493 110.286 80.004C110.286 79.6587 110.169 79.388 109.936 79.192C109.712 78.996 109.399 78.898 108.998 78.898H107.262V81.068H109.026ZM116.491 76.49C116.771 76.0607 117.121 75.7247 117.541 75.482C117.961 75.23 118.427 75.104 118.941 75.104V77.638H118.283C117.685 77.638 117.237 77.7687 116.939 78.03C116.64 78.282 116.491 78.73 116.491 79.374V83H114.097V75.188H116.491V76.49ZM119.609 79.08C119.609 78.2773 119.758 77.5727 120.057 76.966C120.365 76.3593 120.78 75.8927 121.303 75.566C121.825 75.2393 122.409 75.076 123.053 75.076C123.603 75.076 124.084 75.188 124.495 75.412C124.915 75.636 125.237 75.93 125.461 76.294V75.188H127.855V83H125.461V81.894C125.227 82.258 124.901 82.552 124.481 82.776C124.07 83 123.589 83.112 123.039 83.112C122.404 83.112 121.825 82.9487 121.303 82.622C120.78 82.286 120.365 81.8147 120.057 81.208C119.758 80.592 119.609 79.8827 119.609 79.08ZM125.461 79.094C125.461 78.4967 125.293 78.0253 124.957 77.68C124.63 77.3347 124.229 77.162 123.753 77.162C123.277 77.162 122.871 77.3347 122.535 77.68C122.208 78.016 122.045 78.4827 122.045 79.08C122.045 79.6773 122.208 80.1533 122.535 80.508C122.871 80.8533 123.277 81.026 123.753 81.026C124.229 81.026 124.63 80.8533 124.957 80.508C125.293 80.1627 125.461 79.6913 125.461 79.094ZM132.765 83.112C132.083 83.112 131.477 82.9953 130.945 82.762C130.413 82.5287 129.993 82.2113 129.685 81.81C129.377 81.3993 129.204 80.942 129.167 80.438H131.533C131.561 80.7087 131.687 80.928 131.911 81.096C132.135 81.264 132.41 81.348 132.737 81.348C133.035 81.348 133.264 81.292 133.423 81.18C133.591 81.0587 133.675 80.9047 133.675 80.718C133.675 80.494 133.558 80.3307 133.325 80.228C133.091 80.116 132.713 79.9947 132.191 79.864C131.631 79.7333 131.164 79.598 130.791 79.458C130.417 79.3087 130.095 79.08 129.825 78.772C129.554 78.4547 129.419 78.03 129.419 77.498C129.419 77.05 129.54 76.644 129.783 76.28C130.035 75.9067 130.399 75.6127 130.875 75.398C131.36 75.1833 131.934 75.076 132.597 75.076C133.577 75.076 134.347 75.3187 134.907 75.804C135.476 76.2893 135.803 76.9333 135.887 77.736H133.675C133.637 77.4653 133.516 77.2507 133.311 77.092C133.115 76.9333 132.853 76.854 132.527 76.854C132.247 76.854 132.032 76.91 131.883 77.022C131.733 77.1247 131.659 77.2693 131.659 77.456C131.659 77.68 131.775 77.848 132.009 77.96C132.251 78.072 132.625 78.184 133.129 78.296C133.707 78.4453 134.179 78.5947 134.543 78.744C134.907 78.884 135.224 79.1173 135.495 79.444C135.775 79.7613 135.919 80.1907 135.929 80.732C135.929 81.1893 135.798 81.6 135.537 81.964C135.285 82.3187 134.916 82.5987 134.431 82.804C133.955 83.0093 133.399 83.112 132.765 83.112ZM138.597 74.376C138.177 74.376 137.832 74.2547 137.561 74.012C137.3 73.76 137.169 73.452 137.169 73.088C137.169 72.7147 137.3 72.4067 137.561 72.164C137.832 71.912 138.177 71.786 138.597 71.786C139.008 71.786 139.344 71.912 139.605 72.164C139.876 72.4067 140.011 72.7147 140.011 73.088C140.011 73.452 139.876 73.76 139.605 74.012C139.344 74.2547 139.008 74.376 138.597 74.376ZM139.787 75.188V83H137.393V75.188H139.787ZM143.916 72.64V83H141.522V72.64H143.916Z" fill="#111111"/>
</svg>
